<?xml version="1.0" encoding="utf-8"?>
<!-- Generator: Adobe Illustrator 28.2.0, SVG Export Plug-In . SVG Version: 6.00 Build 0)  -->
<svg version="1.1" id="レイヤー_1" xmlns="http://www.w3.org/2000/svg" xmlns:xlink="http://www.w3.org/1999/xlink" x="0px"
	 y="0px" viewBox="0 0 890.6 318.1" style="enable-background:new 0 0 890.6 318.1;" xml:space="preserve">
<style type="text/css">
	.st0{fill-rule:evenodd;clip-rule:evenodd;fill:#FFFFFF;}
</style>
<g>
	<path class="st0" d="M348.7,159.6c27.8-4.5,16-46.7-11.7-42.3l0,0c-1.8,0.3-3.5,0.6-5.3,0.9c3.5-20.1,6.6-40.4,9.2-60.7
		c2.3-18.2-19.9-25-33.1-18.9c-53.4,24.6-96.2,69.3-136.6,110.9c-0.8,0.8-1.6,1.7-2.4,2.5c-51.8,13-103,28.2-153.7,45.4
		c-26.6,9-15.2,51.4,11.7,42.3c29-9.9,58.3-19,87.7-27.5c-20.4,24.1-40,48.9-58.8,74.4c-16.8,22.8,21.4,44.6,37.9,22.1
		c30.3-41,63.1-80.2,98.2-117.2c27.9-6.8,56-13.1,84.2-18.7c-5.4,23.1-11.5,46.1-18.2,68.8c-8,27.1,34.4,38.7,42.4,11.7
		c8.7-29.5,16.3-59.3,22.7-89.3C331.4,162.4,340,161,348.7,159.6z M285.9,126.3c-12.2,2.3-24.4,4.7-36.5,7.2
		c13-12.3,26.8-23.7,41.4-34.1C289.3,108.4,287.6,117.3,285.9,126.3z"/>
	<path class="st0" d="M874.7,225.8L874.7,225.8c-66.6-12-134.4-16.1-201.9-12c1.9-5.1,3.9-10.2,6-15.3l48.7-4.4
		c11.8-1.1,22-9.3,22-21.9c0-11-10.1-23-22-21.9l-27.9,2.5c2.3-4.6,4.7-9.3,7.1-13.9c0.2-0.5,0.4-0.9,0.7-1.4
		c27.2-6.5,55.2-9.4,83.2-8.7c28.3,0.8,28.3-43.1,0-43.8c-37.5-1.1-74.8,3.8-110.6,14.3c19.1-21,38.6-41.6,58.6-61.9
		c19.9-20.1-11.2-51.1-31.1-31v0c-52.1,52.7-100.9,108.5-148.9,165c2.9-20.9,7.3-41.5,13.3-61.7c5.4-18.5-12.5-29.7-27-26.5
		c2.7-5.1,5.4-10.3,8.1-15.4c13.2-24.9-24.7-47.1-37.9-22.1h0c-22,41.4-42.3,83.5-61,126.5c-5.4-2.4-12-2.4-18.7,1.8
		c-15.9,9.8-31.6,19.9-47.1,30.3c24.8-50.8,52.8-99.9,84-147c15.6-23.6-22.4-45.6-37.9-22.1v0C386.9,107.2,346.7,183.4,314,263
		c-7,17,17.5,35.9,32.3,24.7c27.3-20.7,55.4-40.3,84.1-58.8c-5.2,13-10.2,26.1-15,39.2c-9.8,26.5,32.7,37.9,42.4,11.7
		c18.8-50.8,40-100.7,63.5-149.4c-7.6,34.7-11.1,70.2-10.6,105.9c0.2,17.6,24.8,30.7,37.5,15.5c32.1-38.2,64.3-76.4,97.3-113.9
		c1.7,4,4.4,7.5,7.9,9.7c-10.9,23-20.5,46.6-28.9,70.6c-14.8,1.7-29.6,3.8-44.4,6.4c-27.8,4.8-16,47,11.7,42.3
		c89.8-15.3,181.5-14.9,271.1,1.3C890.7,273,902.5,230.8,874.7,225.8z"/>
</g>
</svg>
