<svg xmlns="http://www.w3.org/2000/svg" width="122.75" height="163.719" viewBox="0 0 122.75 163.719">
  <defs>
    <style>
      .cls-1 {
        fill: #fff;
        fill-rule: evenodd;
      }
    </style>
  </defs>
  <path id="logo_main" class="cls-1" d="M207.338,74.273A15.93,15.93,0,0,0,195.068,80l-23.333,29.55-13.449-26.1a3.631,3.631,0,0,1,3.267-5.275h4.905V76.385H108.64a40.234,40.234,0,0,0,10.721-5.058s8.74-5.7,9.512-13.888a9.112,9.112,0,0,0,.075-1.139,9.59,9.59,0,1,0-9.587,9.482c-4.9,9.93-18.847,10.6-18.878,10.6h0v1.787h1.5a10.941,10.941,0,0,1,11,10.879v46.856a10.938,10.938,0,0,1-11,10.881h-1.5v1.791h30.363c-11.932,12.39-15.143,30.117-6.586,44.212a34.951,34.951,0,0,0,10.92,11.174c0.5,0.326,1.018.646,1.542,0.948,12.561,7.328,29.721,7.695,44.416-.377,12.947-7.109,20.892-19.065,22.334-31.391l-12.077-3.23c3.564,13.576-.568,26.927-11.336,32.838-9.968,5.476-22.9,3.076-33.149-5.026a3.576,3.576,0,0,1-.546-5.022l73.7-93.3,0.009-.043a15.516,15.516,0,0,0,3.155-9.375,15.8,15.8,0,0,0-15.887-15.714m-81.589,61.634V89.051a10.938,10.938,0,0,1,11-10.879,7.34,7.34,0,0,1,6.53,3.962L170.2,134.407a47.973,47.973,0,0,0-36.931,11.819,10.888,10.888,0,0,1-7.523-10.319m50.736,15.757L145.651,190.7a3.693,3.693,0,0,1-5.752.043,44.976,44.976,0,0,1-3.3-4.726c-10.207-16.821-7.306-36.6,6.487-44.167,9.825-5.4,22.526-3.145,32.711,4.677a3.623,3.623,0,0,1,.689,5.138m34.781-44.036L190.284,134.2a3.69,3.69,0,0,1-6.155-.586l-8.3-16.123a10.781,10.781,0,0,1,1.132-11.633l12.711-16.139,0,0.008a14.123,14.123,0,0,1,25.07,8.743,13.768,13.768,0,0,1-3.481,9.154Z" transform="translate(-100.469 -46.813)"/>
</svg>
